
<svg xmlns="http://www.w3.org/2000/svg" version="1.1" xmlns:xlink="http://www.w3.org/1999/xlink" preserveAspectRatio="none" x="0px" y="0px" width="2000px" height="600px" viewBox="-200 0 2000 600">
<defs/>

<g id="___1" transform="scale(2,1)">
<g>
<g>
<g>
<path fill="#6A8DE6" stroke="none" d="
M 207.25 205.95
Q 235.3 202.75 225.45 223.1
L 320.95 275.05 320.95 117.05 207.25 205.95
M 133.95 275.05
L 42.95 275.05 42.95 514 133.95 275.05
M 291.25 374.85
L 243.65 374.85 206.25 463.85 170.75 374.85 121.25 374.85 121.25 511.4 150.8 462.35 150.8 405.4 189.25 511.4 204.05 483.35 218.8 511.4 263.45 401.2 263.45 514 278.05 487.95 291.25 514 291.25 374.85 Z"/>

<path fill="#FFFFFF" stroke="none" d="
M 42.95 275.05
L 133.95 275.05 320.95 275.05 225.45 223.1
Q 210.45 240.65 180.25 222.05 159.9 241.65 138.25 226.45
L 42.95 275.05 Z"/>

<path fill="#B25050" stroke="none" d="
M 151.1 203.4
Q 123.45 209.85 138.25 226.45 159.9 241.65 180.25 222.05 210.45 240.65 225.45 223.1 235.3 202.75 207.25 205.95 180.45 226.9 151.1 203.4 Z"/>

<path fill="#FFCC66" stroke="none" d="
M 138.25 226.45
Q 123.45 209.85 151.1 203.4
L 42.95 117.05 42.95 275.05 138.25 226.45
M 530.95 509
L 609.95 509 537.95 378 510.1 408 445.95 378 530.95 509 Z"/>

<path fill="#CCD7EC" stroke="none" d="
M 207.25 205.95
L 320.95 117.05 42.95 117.05 151.1 203.4
Q 180.45 226.9 207.25 205.95
M 390.2 378.35
Q 387.2033203125 377.746484375 380.1 378.2 316.75 382 314.6 455.25 312.75 517.05 364.65 519.2 416.5 521.35 417.55 451.25
L 433.25 491.5 450.1 457.1 484.9 476.85 447.95 410.4
Q 433.5189453125 384.3869140625 413.35 381.65 393.186328125 378.959765625 390.2 378.35
M 363.5 485.95
Q 336.4 484.8 337.35 452.55 338.8 403.9 391.9 413.9 390.8 471.05 382.1 479.7 381.15 480.65 380.1 481.45 374.2 485.95 365.1 486 364.3 486 363.5 485.95
M 769 470
L 679 459 443.55 151.05 636 509 769 509 769 470
M 1073.75 203.4
L 1077.2 203.4 1065.15 187.4 1073.75 203.4 Z"/>

<path fill="#9198A6" stroke="none" d="
M 484.9 476.85
L 450.1 457.1 433.25 491.5 441.5 512.6 457.1 482.55 509.5 512.6 484.9 476.85 Z"/>
</g>
</g>

<g>
<path stroke="#000000" stroke-width="1" stroke-linejoin="round" stroke-linecap="round" fill="none" d="
M 1073.75 203.4
L 1065.15 187.4 1077.2 203.4
M 636 509
L 769 509 769 470 679 459 443.55 151.05 636 509 Z
M 484.9 476.85
L 447.95 410.4
Q 433.5189453125 384.3869140625 413.35 381.675 393.186328125 378.959765625 390.2 378.35 387.2033203125 377.746484375 380.1 378.2 316.75 382 314.6 455.25 312.75 517.05 364.65 519.2 416.5 521.35 417.55 451.25
L 433.25 491.5 450.1 457.1 484.9 476.85 509.5 512.6 457.1 482.55 441.5 512.6 433.25 491.5
M 138.25 226.45
Q 123.45 209.85 151.1 203.4
L 42.95 117.05 42.95 275.05 138.25 226.45
Q 159.9 241.65 180.25 222.05 210.45 240.65 225.45 223.1 235.3 202.75 207.25 205.95 180.45 226.9 151.1 203.4
M 133.95 275.05
L 42.95 275.05 42.95 514 133.95 275.05 320.95 275.05 225.45 223.1
M 121.25 511.4
L 121.25 374.85 170.75 374.85 206.25 463.85 243.65 374.85 291.25 374.85 291.25 514 278.05 487.95 263.45 514 263.45 401.2 218.8 511.4 204.05 483.35 189.25 511.4 150.8 405.4 150.8 462.35 121.25 511.4 Z
M 207.25 205.95
L 320.95 117.05 320.95 275.05
M 42.95 117.05
L 320.95 117.05
M 445.95 378
L 510.1 408 537.95 378 609.95 509 530.95 509 445.95 378 Z
M 391.9 413.9
Q 338.8 403.9 337.35 452.55 336.4 484.8 363.5 485.95 364.3 486 365.1 486 374.2 485.95 380.1 481.45 381.15 480.65 382.1 479.7 390.8 471.05 391.9 413.9 Z"/>
</g>
</g>

<g transform="matrix( 1, 0, 0, 1, -30.05,-52) ">
<g>
<g>
<path fill="#FFCC66" stroke="none" d="
M 513 378
Q 507 384 507 392.5 507 401 513 407 519 413 527.5 413 536 413 542 407 548 401 548 392.5 548 384 542 378 536 372 527.5 372 519 372 513 378 Z"/>
</g>
</g>

<g>
<path stroke="#000000" stroke-width="1" stroke-linejoin="round" stroke-linecap="round" fill="none" d="
M 548 392.5
Q 548 401 542 407 536 413 527.5 413 519 413 513 407 507 401 507 392.5 507 384 513 378 519 372 527.5 372 536 372 542 378 548 384 548 392.5 Z"/>
</g>
</g>

<g transform="matrix( 1, 0, 0, 1, 519.9,68.45) ">
<g>
<g>
<path fill="#FFFFFF" stroke="none" d="
M 518.6 70.4
Q 512.15 76.85 512.15 86 512.15 95.15 518.6 101.6 525.05 108.05 534.2 108.05 543.35 108.05 549.8 101.6 556.25 95.15 556.25 86 556.25 76.85 549.8 70.4 543.35 63.95 534.2 63.95 525.05 63.95 518.6 70.4 Z"/>
</g>
</g>

<g>
<path stroke="#000000" stroke-width="1" stroke-linejoin="round" stroke-linecap="round" fill="none" d="
M 556.25 86
Q 556.25 95.15 549.8 101.6 543.35 108.05 534.2 108.05 525.05 108.05 518.6 101.6 512.15 95.15 512.15 86 512.15 76.85 518.6 70.4 525.05 63.95 534.2 63.95 543.35 63.95 549.8 70.4 556.25 76.85 556.25 86 Z"/>
</g>
</g>

<g transform="matrix( 1, 0, 0, 1, 435.9,-46.05) ">
<g>
<g>
<path fill="#000000" stroke="none" d="
M 623.45 194.05
Q 619.2 194.05 616.2 197.05 613.2 200.05 613.2 204.3 613.2 208.55 616.2 211.55 619.2 214.55 623.45 214.55 627.7 214.55 630.7 211.55 633.7 208.55 633.7 204.3 633.7 200.05 630.7 197.05 627.7 194.05 623.45 194.05 Z"/>
</g>
</g>

<g>
<path stroke="#000000" stroke-width="1" stroke-linejoin="round" stroke-linecap="round" fill="none" d="
M 633.7 204.3
Q 633.7 208.55 630.7 211.55 627.7 214.55 623.45 214.55 619.2 214.55 616.2 211.55 613.2 208.55 613.2 204.3 613.2 200.05 616.2 197.05 619.2 194.05 623.45 194.05 627.7 194.05 630.7 197.05 633.7 200.05 633.7 204.3 Z"/>
</g>
</g>

<g transform="matrix( 1, 0, 0, 2, -275.7,0) ">
<g>
<g>
<path fill="#FFFFFF" stroke="none" d="
M 518.6 70.4
Q 512.15 76.85 512.15 86 512.15 95.15 518.6 101.6 525.05 108.05 534.2 108.05 543.35 108.05 549.8 101.6 556.25 95.15 556.25 86 556.25 76.85 549.8 70.4 543.35 63.95 534.2 63.95 525.05 63.95 518.6 70.4 Z"/>
</g>
</g>

<g>
<path stroke="#000000" stroke-width="1" stroke-linejoin="round" stroke-linecap="round" fill="none" d="
M 556.25 86
Q 556.25 95.15 549.8 101.6 543.35 108.05 534.2 108.05 525.05 108.05 518.6 101.6 512.15 95.15 512.15 86 512.15 76.85 518.6 70.4 525.05 63.95 534.2 63.95 543.35 63.95 549.8 70.4 556.25 76.85 556.25 86 Z"/>
</g>
</g>

<g transform="matrix( 1, 0, 0, 1, -21.05,0) ">
<g>
<path stroke="#000000" stroke-width="4" stroke-linejoin="round" stroke-linecap="butt" fill="none" d="
M 283.95 156.8
L 268.3 171.05 284.5 183.05"/>
</g>
</g>

<g transform="matrix( -1, 0, 0, 2, 640.65,0) ">
<g>
<g>
<path fill="#FFFFFF" stroke="none" d="
M 518.6 70.4
Q 512.15 76.85 512.15 86 512.15 95.15 518.6 101.6 525.05 108.05 534.2 108.05 543.35 108.05 549.8 101.6 556.25 95.15 556.25 86 556.25 76.85 549.8 70.4 543.35 63.95 534.2 63.95 525.05 63.95 518.6 70.4 Z"/>
</g>
</g>

<g transform="matrix( -1, 0, 0, 1, 640.65,-81.1) ">
<path stroke="#000000" stroke-width="1" stroke-linejoin="round" stroke-linecap="round" fill="none" d="
M 84.39999999999998 167.1
Q 84.39999999999998 176.25 90.85000000000002 182.7 97.29999999999995 189.14999999999998 106.44999999999993 189.14999999999998 115.60000000000002 189.14999999999998 122.04999999999995 182.7 128.5 176.25 128.5 167.1 128.5 157.95 122.04999999999995 151.5 115.60000000000002 145.05 106.44999999999993 145.05 97.29999999999995 145.05 90.85000000000002 151.5 84.39999999999998 157.95 84.39999999999998 167.1 Z"/>
</g>
</g>

<g transform="matrix( 1, 0, 0, 1, -21.05,0) ">
<g>
<path stroke="#000000" stroke-width="4" stroke-linejoin="round" stroke-linecap="butt" fill="none" d="
M 123.1 156.8
L 138.75 171.05 122.55 183.05"/>
</g>
</g>
</g>
</svg>
